<?xml version="1.0" standalone="no"?>
<!DOCTYPE svg PUBLIC "-//W3C//DTD SVG 20010904//EN"
 "http://www.w3.org/TR/2001/REC-SVG-20010904/DTD/svg10.dtd">
<svg version="1.0" xmlns="http://www.w3.org/2000/svg"
 width="457.000000pt" height="241.000000pt" viewBox="0 0 457.000000 241.000000"
 preserveAspectRatio="xMidYMid meet">

<g transform="translate(0.000000,241.000000) scale(0.100000,-0.100000)"
fill="#000000" stroke="none">
<path d="M450 2271 c0 -24 9 -36 46 -63 l46 -33 -39 -32 c-21 -18 -41 -33 -45
-33 -9 0 -11 -60 -2 -60 14 0 164 124 157 130 -32 28 -153 120 -157 120 -4 0
-6 -13 -6 -29z"/>
<path d="M620 2273 c0 -24 10 -38 45 -66 l46 -35 -46 -33 c-36 -26 -45 -38
-45 -62 0 -16 3 -27 8 -25 23 10 152 114 152 123 0 5 -28 30 -61 55 -109 81
-99 76 -99 43z"/>
<path d="M790 2273 c0 -21 11 -38 42 -65 l43 -36 -29 -24 c-17 -12 -36 -28
-44 -33 -7 -6 -12 -23 -10 -37 l3 -27 60 45 c33 25 69 52 80 60 19 15 19 16
-20 49 -22 19 -59 49 -82 65 l-43 31 0 -28z"/>
<path d="M960 2271 c0 -22 10 -38 43 -65 41 -34 41 -36 22 -49 -57 -41 -67
-53 -63 -79 l3 -27 65 50 c104 80 103 69 11 138 l-81 62 0 -30z"/>
<path d="M1129 2298 c-12 -44 -7 -56 37 -89 l46 -34 -46 -38 c-31 -27 -46 -47
-46 -63 0 -32 7 -30 62 14 25 20 61 48 78 62 l32 25 -81 63 c-44 34 -81 61
-82 60z"/>
<path d="M1290 2271 c0 -24 9 -36 46 -63 l46 -33 -39 -32 c-21 -18 -41 -33
-45 -33 -9 0 -11 -60 -2 -60 3 0 42 28 85 62 64 49 77 64 67 73 -27 24 -148
115 -153 115 -3 0 -5 -13 -5 -29z"/>
<path d="M1460 2272 c0 -23 10 -37 46 -65 l45 -35 -45 -34 c-35 -25 -45 -40
-46 -61 0 -33 -1 -34 98 41 40 31 69 58 65 62 -25 20 -140 108 -150 114 -9 5
-13 -1 -13 -22z"/>
<path d="M1630 2271 c0 -24 9 -37 45 -65 l46 -34 -46 -33 c-35 -25 -45 -39
-45 -61 0 -15 2 -28 5 -28 3 0 41 28 84 62 l80 62 -57 43 c-31 24 -64 50 -72
57 -35 28 -40 28 -40 -3z"/>
<path d="M1800 2273 c0 -21 11 -38 42 -65 l43 -36 -29 -24 c-17 -12 -36 -28
-44 -33 -8 -6 -12 -23 -10 -39 l3 -29 75 59 c41 31 77 59 80 62 6 4 -54 56
-117 102 l-43 31 0 -28z"/>
<path d="M1970 2272 c0 -23 10 -38 43 -66 41 -34 41 -36 22 -49 -58 -41 -67
-53 -63 -81 l3 -28 49 38 c27 22 62 51 79 65 l30 25 -69 54 c-38 29 -75 57
-81 63 -10 7 -13 2 -13 -21z"/>
<path d="M2140 2268 c0 -27 8 -38 42 -62 l41 -30 -41 -36 c-31 -26 -42 -43
-42 -63 l0 -28 43 31 c23 16 59 45 81 63 l38 33 -81 62 -81 63 0 -33z"/>
<path d="M2300 2275 c0 -23 24 -52 74 -88 16 -12 14 -16 -27 -50 -31 -26 -44
-44 -44 -62 0 -14 2 -25 5 -25 6 0 151 111 157 120 4 7 -148 130 -159 130 -4
0 -6 -11 -6 -25z"/>
<path d="M2605 1970 c-85 -34 -59 -155 33 -155 98 0 130 123 41 154 -37 13
-46 13 -74 1z"/>
<path d="M880 1885 c-90 -26 -146 -70 -188 -150 -23 -42 -27 -62 -26 -130 0
-96 29 -162 95 -219 112 -95 321 -95 422 2 l28 27 -48 41 -48 42 -33 -26 c-50
-38 -143 -43 -191 -10 -51 34 -74 79 -73 144 0 64 23 109 73 142 48 34 139 28
190 -11 l36 -27 47 41 47 42 -27 28 c-60 63 -200 92 -304 64z"/>
<path d="M1376 1750 c-118 -36 -187 -177 -141 -288 41 -97 135 -148 257 -140
93 7 151 43 191 118 63 121 9 260 -120 306 -42 15 -143 17 -187 4z m159 -135
c20 -19 25 -34 25 -72 0 -58 -20 -90 -63 -101 -75 -20 -127 21 -127 100 0 67
30 98 95 98 35 0 52 -6 70 -25z"/>
<path d="M1757 1753 c-3 -5 -4 -102 -3 -218 l1 -210 73 -3 72 -3 0 125 c0 72
5 136 11 150 22 48 106 59 128 18 5 -10 11 -79 13 -153 l3 -134 73 -3 72 -3 0
131 0 132 29 29 c35 34 72 38 101 9 18 -18 20 -34 21 -142 1 -68 2 -130 3
-138 1 -12 18 -16 74 -18 l74 -3 -4 170 c-3 184 -7 197 -70 244 -53 40 -166
34 -219 -10 -21 -18 -35 -24 -44 -17 -54 40 -73 48 -120 52 -41 3 -64 -1 -98
-17 -53 -26 -57 -26 -57 -1 0 18 -7 20 -64 20 -36 0 -67 -3 -69 -7z"/>
<path d="M2570 1540 l0 -220 75 0 75 0 0 220 0 220 -75 0 -75 0 0 -220z"/>
<path d="M2790 1540 l0 -220 70 0 70 0 0 114 c0 130 11 171 51 191 38 20 61
19 92 -6 26 -20 26 -23 29 -157 l3 -137 73 -3 74 -3 -4 163 c-4 181 -11 207
-70 249 -49 35 -139 38 -200 6 l-48 -24 0 23 c0 23 -3 24 -70 24 l-70 0 0
-220z"/>
<path d="M3420 1747 c-19 -6 -51 -28 -71 -48 -65 -65 -76 -154 -31 -240 52
-99 174 -137 275 -85 43 21 47 22 47 5 0 -32 -19 -68 -44 -84 -32 -21 -131
-21 -181 -1 -21 9 -40 16 -44 16 -4 0 -17 -21 -30 -47 -22 -45 -22 -48 -4 -60
68 -50 252 -57 338 -12 41 21 55 35 80 84 l30 59 0 210 0 211 -67 3 c-67 3
-68 3 -68 -23 0 -31 -4 -31 -43 -3 -36 26 -131 34 -187 15z m195 -132 c27 -27
33 -79 12 -106 -56 -73 -187 -41 -187 46 0 55 35 85 100 85 41 0 56 -5 75 -25z"/>
<path d="M832 1130 c-133 -28 -208 -142 -157 -240 28 -55 58 -70 242 -119 51
-14 73 -34 66 -60 -11 -44 -111 -54 -203 -20 -80 29 -80 29 -106 -29 l-23 -53
42 -19 c95 -42 242 -48 329 -13 98 39 140 155 87 241 -19 31 -98 68 -186 87
-87 20 -119 41 -108 74 14 44 101 54 195 21 30 -10 55 -18 56 -17 22 49 41
103 38 109 -18 28 -197 54 -272 38z"/>
<path d="M1280 979 c-89 -40 -132 -105 -131 -200 0 -127 83 -207 223 -217 152
-11 260 80 260 217 0 66 -10 96 -48 140 -64 77 -206 105 -304 60z m180 -125
c20 -20 25 -34 25 -74 0 -66 -34 -103 -95 -103 -61 0 -95 37 -95 102 0 38 5
55 24 75 39 42 97 41 141 0z"/>
<path d="M1801 987 c-45 -17 -107 -71 -128 -110 -22 -43 -22 -151 0 -193 9
-18 35 -48 57 -67 108 -93 302 -69 378 45 23 36 27 51 27 118 0 67 -4 82 -27
118 -42 63 -105 95 -197 99 -45 1 -90 -3 -110 -10z m172 -138 c17 -21 21 -42
17 -89 -5 -55 -37 -82 -98 -82 -70 0 -115 89 -81 155 31 58 120 67 162 16z"/>
<path d="M2185 978 c-3 -13 -4 -111 -3 -218 l3 -195 72 -3 71 -3 4 135 c3 153
12 171 80 183 30 4 41 1 62 -20 25 -25 26 -29 26 -162 l0 -135 76 0 76 0 -3
158 c-5 187 -17 222 -90 260 -58 30 -149 28 -196 -6 -39 -28 -43 -28 -43 3 0
24 -2 25 -65 25 -59 0 -65 -2 -70 -22z"/>
<path d="M2960 975 c-18 -21 -8 -48 23 -63 15 -7 27 -17 27 -22 0 -15 -23 -25
-28 -12 -4 13 -32 17 -32 4 0 -15 24 -32 46 -32 47 0 58 55 16 76 -13 6 -28
16 -34 22 -16 16 9 24 31 10 27 -16 41 0 17 18 -25 18 -50 18 -66 -1z"/>
<path d="M3085 979 c-4 -6 2 -13 14 -16 18 -5 21 -13 21 -59 0 -72 18 -69 22
4 3 48 6 57 21 54 9 -2 17 3 17 11 0 17 -85 23 -95 6z"/>
<path d="M3265 980 c-6 -9 -45 -120 -45 -127 0 -10 29 -1 34 12 3 8 16 15 30
15 13 0 26 -7 30 -15 3 -8 12 -15 21 -15 12 0 11 9 -6 58 -29 77 -48 98 -64
72z m32 -76 c-3 -3 -12 -4 -20 -2 -11 2 -12 9 -5 28 l10 25 11 -23 c5 -12 8
-25 4 -28z"/>
<path d="M3390 984 c0 -3 9 -22 20 -44 11 -22 20 -51 20 -65 0 -16 6 -25 15
-25 9 0 15 9 15 25 0 14 9 44 21 66 11 23 18 43 15 46 -9 9 -27 -8 -37 -35
l-11 -27 -13 26 c-13 23 -45 47 -45 33z"/>
<path d="M2943 697 c-3 -4 4 -11 16 -14 18 -5 21 -13 21 -59 0 -41 4 -54 15
-54 12 0 15 13 15 55 0 42 3 55 15 55 8 0 15 7 15 15 0 12 -10 15 -46 14 -25
-2 -48 -7 -51 -12z"/>
<path d="M3090 652 c0 -57 2 -63 25 -74 52 -24 85 16 81 96 -2 54 -25 41 -28
-16 -3 -49 -5 -53 -28 -53 -22 0 -25 5 -28 45 -5 72 -22 73 -22 2z"/>
<path d="M3250 640 c0 -40 4 -70 10 -70 6 0 10 18 10 40 0 22 3 40 8 40 4 0
18 -18 32 -40 37 -60 50 -53 50 31 0 52 -3 70 -12 66 -8 -2 -12 -17 -11 -35 4
-46 -11 -47 -41 -2 -14 22 -31 40 -36 40 -6 0 -10 -31 -10 -70z"/>
<path d="M3419 705 c0 0 -3 -30 -6 -67 l-5 -68 41 0 c30 0 41 4 41 15 0 9 -9
15 -25 15 -16 0 -25 6 -25 15 0 9 9 15 25 15 14 0 25 5 25 10 0 6 -11 10 -25
10 -16 0 -25 6 -25 15 0 9 9 15 25 15 14 0 25 6 25 13 0 11 -37 17 -71 12z"/>
<path d="M2230 299 c-41 -32 -75 -63 -75 -68 0 -5 35 -37 78 -70 l77 -61 0 35
c0 19 -3 35 -7 35 -5 1 -24 14 -43 31 l-35 29 44 38 c34 29 42 43 39 63 -3 26
-4 26 -78 -32z"/>
<path d="M2398 298 c-43 -32 -78 -63 -78 -67 0 -4 36 -36 80 -70 l80 -62 0 36
c0 19 -3 35 -7 35 -5 0 -24 14 -43 30 l-35 30 43 38 c34 29 43 43 40 64 -3 25
-4 25 -80 -34z"/>
<path d="M2563 296 l-82 -63 22 -20 c12 -11 50 -41 85 -67 l62 -47 0 30 c0 23
-10 38 -45 66 l-45 37 45 35 c35 27 45 40 45 63 0 17 -1 30 -2 30 -2 0 -40
-29 -85 -64z"/>
<path d="M3070 298 c-41 -33 -75 -63 -75 -68 0 -8 139 -120 149 -120 3 0 6 13
6 29 0 22 -9 35 -40 56 -22 15 -40 31 -40 36 0 4 18 20 40 36 32 23 40 34 40
61 0 17 -1 32 -2 31 -2 0 -37 -27 -78 -61z"/>
<path d="M3240 300 c-41 -33 -75 -64 -75 -69 0 -9 139 -121 150 -121 3 0 5 13
5 29 0 22 -9 35 -40 56 -22 15 -40 31 -40 36 0 4 18 20 40 36 32 23 40 34 40
61 0 17 -1 32 -2 31 -2 0 -37 -27 -78 -59z"/>
<path d="M3410 300 c-41 -33 -76 -63 -78 -68 -1 -4 34 -36 78 -71 l80 -62 0
36 c0 19 -3 35 -7 35 -5 0 -24 14 -43 30 l-35 29 43 38 c35 30 43 44 40 65 -3
26 -3 26 -78 -32z"/>
<path d="M3578 299 c-43 -33 -78 -64 -78 -68 0 -5 36 -36 80 -70 l80 -62 0 30
c0 23 -10 38 -45 66 l-45 37 45 35 c35 27 45 40 45 63 0 17 -1 30 -2 30 -2 0
-38 -28 -80 -61z"/>
<path d="M4080 299 c-41 -32 -75 -63 -75 -68 0 -10 137 -121 149 -121 3 0 6
13 6 29 0 22 -9 35 -40 56 -22 15 -40 31 -40 36 0 4 18 20 40 36 32 23 40 34
40 61 0 17 -1 32 -2 31 -2 0 -37 -27 -78 -60z"/>
<path d="M2727 293 c-42 -32 -76 -60 -76 -63 0 -6 142 -113 158 -118 6 -2 11
7 11 21 0 18 -13 34 -45 58 -24 19 -44 36 -44 39 0 3 20 20 44 39 31 23 45 41
45 57 0 13 -4 24 -9 24 -4 0 -43 -26 -84 -57z"/>
<path d="M2920 312 c-25 -20 -58 -46 -74 -58 l-29 -21 77 -62 c43 -33 79 -61
82 -61 2 0 4 13 4 29 0 23 -9 36 -40 58 -22 15 -40 31 -40 34 0 4 18 19 40 34
31 21 40 34 40 56 0 16 -3 29 -7 28 -5 0 -28 -17 -53 -37z"/>
<path d="M3736 291 l-76 -59 76 -61 c42 -34 80 -61 85 -61 5 0 9 11 9 24 0 16
-15 36 -45 61 l-46 37 46 35 c31 25 45 43 45 59 0 13 -4 24 -9 24 -4 0 -43
-27 -85 -59z"/>
<path d="M3905 293 c-38 -30 -71 -58 -72 -62 -2 -5 130 -111 149 -119 4 -2 8
9 8 25 0 22 -9 36 -40 59 -22 16 -40 32 -40 35 0 3 18 18 40 35 29 21 40 36
40 57 0 15 -3 27 -7 27 -5 -1 -39 -26 -78 -57z"/>
</g>
</svg>
